<?xml version="1.0" encoding="utf-8"?>
<!-- Generator: Adobe Illustrator 23.0.6, SVG Export Plug-In . SVG Version: 6.00 Build 0)  -->
<svg version="1.1" id="Capa_1" xmlns="http://www.w3.org/2000/svg" xmlns:xlink="http://www.w3.org/1999/xlink" x="0px" y="0px"
	 viewBox="0 0 512 645.1" style="enable-background:new 0 0 512 645.1;" xml:space="preserve">
<style type="text/css">
	.st0{fill:#FCFCFC;}
</style>
<g>
	<g>
		<path class="st0" d="M268.1,380.9c-3.8-3.8-9.8-3.8-13.6,0c-3.7,3.7-3.7,9.8,0,13.6c3.8,3.7,9.8,3.7,13.6,0
			C271.9,390.7,271.9,384.6,268.1,380.9z"/>
	</g>
</g>
<g>
	<g>
		<path class="st0" d="M390.3,258.7c-18.7-18.7-49.1-18.7-67.8,0c-18.7,18.7-18.7,49.1,0,67.8c18.7,18.7,49.1,18.7,67.8,0
			C409,307.8,409,277.5,390.3,258.7z M376.7,313c-11.2,11.2-29.5,11.2-40.7,0c-11.2-11.2-11.2-29.5,0-40.7
			c11.2-11.2,29.5-11.2,40.7,0C387.9,283.6,387.9,301.8,376.7,313z"/>
	</g>
</g>
<g>
	<g>
		<path class="st0" d="M498.8,150.2c-1.9-1.9-4.5-2.9-7.1-2.8c-2.2,0.1-53.8,2.2-115.2,23.9c-49.2,17.4-90.2,42.2-121.9,73.9
			c-7.1,7.1-14,14.6-20.6,22.4c-31.3-18.4-56.4-12.7-72.3-4.2c-36.5,19.6-59.2,72.6-59.2,110.6c0,3.9,2.3,7.4,5.9,8.9
			c1.2,0.5,2.4,0.7,3.7,0.7c2.5,0,5-1,6.8-2.8c19.3-19.3,43-18.1,50.8-17l3.4,3.4c-6.6,15.7-11.9,31.4-15.8,46.6
			c-1.4,5.5-0.9,11.3,1.2,16.7c-9.2,4.3-18.1,10.5-25.9,18.3c-24.7,24.7-29.7,84.9-29.9,87.4c-0.2,2.8,0.8,5.6,2.8,7.5
			c1.8,1.8,4.3,2.8,6.8,2.8c0.3,0,0.5,0,0.8,0c2.6-0.2,62.7-5.2,87.4-29.9c7.8-7.8,14-16.7,18.3-25.9c5.6,2.2,11.5,2.5,16.7,1.2
			c15.2-3.9,30.9-9.2,46.6-15.8l3.4,3.4c1,7.8,2.2,31.5-17,50.8c-2.7,2.7-3.6,6.9-2.1,10.5c1.5,3.6,5,5.9,8.9,5.9
			c38,0,91.1-22.6,110.6-59.2c8.5-15.9,14.3-41-4.2-72.3c7.8-6.6,15.3-13.5,22.4-20.6c31.7-31.7,56.6-72.7,73.9-121.9
			c21.7-61.4,23.8-113.1,23.9-115.2C501.7,154.7,500.7,152.1,498.8,150.2z M124,353.4c6-28.8,23.3-60.5,46.8-73.1
			c15.7-8.4,32.9-7.6,51.1,2.4c-15.5,20.4-29,42.5-40.3,65.7c-0.1-0.1-1.9-2.3-5.1-3C175.1,345.2,149.7,339.7,124,353.4z M186.7,503
			c-13.2,13.2-44.1,20.2-63.7,23c2.8-19.6,9.8-50.5,23-63.7c7.4-7.4,16-13,24.6-16.1l32.3,32.3C199.7,487,194.1,495.6,186.7,503z
			 M230.5,473.2c-2.8,0.7-6-0.3-8.4-2.7c-12.4-12.4-17.3-17.3-18.8-18.8c-2.8-2.8-9.6-9.6-24.8-24.8c-2.4-2.4-3.4-5.6-2.7-8.4
			c3.1-12,7.1-24.2,12-36.6l79.3,79.3C254.7,466.1,242.4,470.1,230.5,473.2z M368.6,478.3c-12.6,23.5-44.2,40.8-73.1,46.8
			c9.2-17.3,11.2-39.3,7.9-52.7c-0.8-3.1-2.8-4.7-2.9-4.8c23.3-11.3,45.3-24.8,65.7-40.3C376.2,445.4,377,462.6,368.6,478.3z
			 M390.3,380.9c-8.6,8.6-18,17-27.7,24.8c-23.4,18.8-49.1,34.7-76.5,47.4l-90.2-90.2c12.7-27.4,28.6-53.1,47.4-76.5
			c7.8-9.7,16.2-19,24.8-27.7c28.4-28.4,65.1-51,109.1-67.3l80.4,80.4C441.3,315.8,418.7,352.4,390.3,380.9z M464.5,251.6
			l-67.1-67.1c36.5-11.3,68.3-15.6,84.2-17.1C480.1,183.2,475.8,215,464.5,251.6z"/>
	</g>
</g>
<g>
	<g>
		<path class="st0" d="M241,543.7c-3.7-3.7-9.8-3.7-13.6,0l-27.1,27.1c-3.7,3.7-3.7,9.8,0,13.6c3.7,3.7,9.8,3.7,13.6,0l27.1-27.1
			C244.8,553.5,244.8,547.4,241,543.7z"/>
	</g>
</g>
<g>
	<g>
		<path class="st0" d="M105.3,408c-3.7-3.7-9.8-3.7-13.6,0l-27.1,27.1c-3.7,3.7-3.7,9.8,0,13.6c3.7,3.7,9.8,3.7,13.6,0l27.1-27.1
			C109.1,417.8,109.1,411.7,105.3,408z"/>
	</g>
</g>
<g>
	<g>
		<path class="st0" d="M173.2,557.3c-3.7-3.7-9.8-3.7-13.6,0l-65,65c-3.7,3.7-3.7,9.8,0,13.6c3.7,3.7,9.8,3.7,13.6,0l65-65
			C176.9,567.1,176.9,561,173.2,557.3z"/>
	</g>
</g>
<g>
	<g>
		<path class="st0" d="M96.4,557.3c-3.7-3.7-9.8-3.7-13.6,0l-65,65c-3.7,3.7-3.7,9.8,0,13.6c3.7,3.7,9.8,3.7,13.6,0l65-65
			C100.2,567.1,100.2,561,96.4,557.3z"/>
	</g>
</g>
<g>
	<g>
		<path class="st0" d="M91.7,475.8c-3.7-3.7-9.8-3.7-13.6,0l-65,65c-3.7,3.7-3.7,9.8,0,13.6c3.7,3.7,9.8,3.7,13.6,0l65-65
			C95.5,485.7,95.5,479.6,91.7,475.8z"/>
	</g>
</g>
<g>
	<g>
		<path class="st0" d="M308.8,340.2c-3.7-3.7-9.8-3.7-13.6,0l-13.6,13.6c-3.7,3.7-3.7,9.8,0,13.6c3.7,3.7,9.8,3.7,13.6,0l13.6-13.6
			C312.6,350,312.6,343.9,308.8,340.2z"/>
	</g>
</g>
</svg>
